<svg viewBox="0 0 126 36" fill="none" xmlns="http://www.w3.org/2000/svg" width="126" height="36" class="max-w-full" aria-label="Peninsula Group"><path fill-rule="evenodd" clip-rule="evenodd" d="M9.011.626a14.3 14.3 0 0 1 2.245-.122h.022c1.288.04 8.563.259 11.507 5.605A11.09 11.09 0 0 1 24 11.099c0 6.171-5.304 10.732-13.113 10.912v-.398c4.61-.111 7.712-3.012 7.712-10.292 0-1.93-.07-5.679-2.863-7.9a7.418 7.418 0 0 0-4.881-1.496l-.03.002c-.945.06-2.966.185-4.254 1.812a4.732 4.732 0 0 0-.982 2.98v19.99C5.46 31.995 3.203 34.604.07 35.5l-.06-23.479V9.37a8.227 8.227 0 0 1 1.784-5.51C3.935 1.3 7.325.85 9.011.627Zm77.71 21.244a8.441 8.441 0 0 1-1.285-.757l.006.018c-.2.25-.38.514-.54.788-.145.215-.23.46-.25.715-.002.156.05.308.147.433.1.13.225.242.367.33a6.36 6.36 0 0 0 1.183.464 7.422 7.422 0 0 0 2.14.25 6.743 6.743 0 0 0 1.864-.244 4.079 4.079 0 0 0 1.46-.733c.408-.334.731-.751.945-1.22a3.72 3.72 0 0 0 .34-1.632c.018-.491-.09-.98-.314-1.422a2.961 2.961 0 0 0-.81-.94 4.798 4.798 0 0 0-1.1-.612 32.456 32.456 0 0 0-1.195-.451l-.881-.336a3.894 3.894 0 0 1-.727-.36 1.672 1.672 0 0 1-.456-.47 1.107 1.107 0 0 1-.186-.612 1.088 1.088 0 0 1 .135-.647c.117-.172.279-.312.469-.41.201-.1.418-.17.643-.207.224-.04.453-.06.681-.06.552-.01 1.099.099 1.6.317a5.75 5.75 0 0 1 1.184.665c.215-.21.396-.448.54-.708.107-.173.173-.367.193-.568a.836.836 0 0 0-.137-.465.898.898 0 0 0-.378-.323 2.792 2.792 0 0 0-.43-.238 5.258 5.258 0 0 0-.714-.256 8.119 8.119 0 0 0-.939-.208 6.855 6.855 0 0 0-1.13-.085 6.264 6.264 0 0 0-1.672.22c-.502.132-.974.35-1.395.64a3.094 3.094 0 0 0-1.305 2.584c-.02.496.084.99.302 1.441.2.348.476.652.81.892.323.254.685.46 1.073.61.399.151.793.29 1.183.416l.9.317c.273.093.532.219.772.373.215.14.396.32.533.531.14.234.21.5.2.77.007.255-.057.508-.187.732a1.505 1.505 0 0 1-.47.483 2.085 2.085 0 0 1-.642.268 3.233 3.233 0 0 1-.752.086 3.893 3.893 0 0 1-1.775-.379Zm-44.987-7.034c.112.265.154.552.122.836.038.328-.008.659-.132.967a2.084 2.084 0 0 1-.581.804 3.5 3.5 0 0 1-2.019.494h-.604v-4.165c.328-.039.66-.057.99-.055.602-.033 1.2.12 1.704.434.229.185.407.42.52.685Zm2.289 2.631a4.163 4.163 0 0 0 .405-1.917 2.983 2.983 0 0 0-.275-1.467 3.147 3.147 0 0 0-.96-1.178c-.827-.598-2.14-.897-3.94-.897-.463 0-.984.014-1.562.042-.579.029-1.142.078-1.691.147V23.8h2.533v-4.17h.874a8.523 8.523 0 0 0 1.929-.209 4.547 4.547 0 0 0 1.594-.69c.468-.33.843-.764 1.093-1.264Zm9.235 4.552a1.546 1.546 0 0 0-.647-.063H48.677v-3.23h3.896v-1.87h-3.896V13.98h3.613c.435.046.872-.063 1.228-.305.117-.124.207-.269.263-.426.057-.158.079-.324.065-.49v-.324a2.742 2.742 0 0 0-.045-.324h-7.657v11.695h7.991v-.61c0-.312-.113-.615-.321-.855a1.487 1.487 0 0 0-.556-.322ZM65.616 23.8h-.025V13.43a1.43 1.43 0 0 0-.148-.696 1.15 1.15 0 0 0-.38-.409 1.415 1.415 0 0 0-.507-.201 2.936 2.936 0 0 0-.553-.055 3.047 3.047 0 0 0-.347 0l-.476.06v8.044l-4.738-7.329a1.778 1.778 0 0 0-.585-.61 1.838 1.838 0 0 0-.874-.19c-.215 0-.43.013-.643.037-.098.009-.187.024-.267.038a1.42 1.42 0 0 1-.228.03V23.8h2.404v-7.676l5.24 7.676h2.102v.012l.026-.012Zm3.035-11.731-.508.06v11.683h2.513V13.43c.012-.24-.04-.48-.154-.696a1.197 1.197 0 0 0-.392-.409 1.49 1.49 0 0 0-.52-.201 3.092 3.092 0 0 0-.56-.055h-.38ZM82.974 23.8h-.033V13.43a1.42 1.42 0 0 0-.148-.696 1.142 1.142 0 0 0-.372-.409 1.417 1.417 0 0 0-.508-.201 2.939 2.939 0 0 0-.553-.055 3.045 3.045 0 0 0-.347 0l-.476.06v8.044L75.8 12.844a1.776 1.776 0 0 0-.585-.61 1.838 1.838 0 0 0-.874-.19c-.215 0-.43.013-.643.037-.098.009-.187.024-.267.038a1.41 1.41 0 0 1-.228.03V23.8h2.41v-7.676l5.234 7.676h2.095v.012l.032-.012Zm21.323-4.708v.696c0 .232 0 .47-.058.714a4.285 4.285 0 0 1-.373 1.387 3.226 3.226 0 0 1-.88 1.136 4.31 4.31 0 0 1-1.44.757 6.651 6.651 0 0 1-2.038.28 7.23 7.23 0 0 1-2.019-.244 3.78 3.78 0 0 1-1.376-.708 3.061 3.061 0 0 1-.842-1.136 5.583 5.583 0 0 1-.43-1.539c0-.118-.015-.238-.03-.36a4.539 4.539 0 0 1-.028-.287 5.94 5.94 0 0 1-.003-.453c.001-.08.003-.16.003-.243V12.13l.508-.061h.379c.188.001.375.02.56.055.185.034.362.102.52.201.166.104.302.245.399.41.112.215.166.455.154.696v5.844c-.003.38.025.76.084 1.136.046.297.158.582.327.836.171.242.41.435.688.556.365.147.76.216 1.157.202.328.033.66-.012.965-.133a1.95 1.95 0 0 0 .777-.557 3.246 3.246 0 0 0 .495-1.93V12.13l.508-.061h.38c.187.001.375.02.559.055.186.034.363.102.521.201.165.104.302.245.398.41.113.215.166.455.154.696v5.66h-.019Zm8.132 2.772h-3.58V13.43c.012-.24-.042-.48-.155-.696a1.163 1.163 0 0 0-.405-.409 1.604 1.604 0 0 0-.533-.201 3.099 3.099 0 0 0-.56-.055h-.379l-.508.06v11.677h7.605a1.1 1.1 0 0 0 0-.28v-.422c0-.153-.022-.305-.064-.452a.98.98 0 0 0-.231-.403 1.163 1.163 0 0 0-.457-.281 2.214 2.214 0 0 0-.733-.104Zm7.824-7.64-1.672 4.99h3.285l-1.613-4.99Zm3.143 9.582-.002-.006H126l-3.915-10.675a1.494 1.494 0 0 0-.791-.898 1.674 1.674 0 0 0-.488-.146 3.332 3.332 0 0 0-.45-.037 4.406 4.406 0 0 0-.855.08c-.22.035-.435.09-.643.165l-4.262 11.517h2.5l1.01-2.864h4.243l1.045 2.858h-.004l.006.006Z" fill="#E30138"></path></svg>